<svg xmlns="http://www.w3.org/2000/svg" viewBox="0 0 1287 1360"><path fill="#93c01f" d="M661.15 228.54c47.11 48.75 94.02 97.67 141.39 146.17 27.05 27.68 51.76 58.66 64.76 95.64 13.27 37.78 14.99 79.75 7.07 118.83-17.83 87.9-88.06 153.89-174.93 171.73-57.18 11.74-119.15.99-169.11-29.24-33.62-20.35-61.14-51.74-79.91-86.1-19.77-36.18-28.2-78.34-25.72-119.36 3.54-58.63 34.47-105.99 73.07-147.7q37.38-40.39 76.61-79c23.43-23.07 44.96-47.91 68.72-70.72 6.25-6 11.96-6.55 18.05-.25ZM505.9 686.85c39.52 40.25 96.41 59.75 152.06 58.68 56.96-1.09 113.44-26.31 151.03-69.17 41.29-47.09 58.65-111.99 46.22-173.6-10.51-52.14-42.07-89.06-78.06-125.52-41.98-42.52-83.35-85.69-124.63-128.91q-.38-.4-.78-.02-10.05 9.6-21.29 21.63c-37.45 40.09-78.47 79.83-115.98 120.01-39.24 42.03-69.64 89.31-70 148.78-.34 56.78 21.71 107.67 61.43 148.12Z"/><path fill="#93c01f" d="M460.9 353.65c27.15-30.11 61.21-65.37 89.61-93.2 1.11-1.08 1.56-2.36 3.48-1.57a2.13 2.13 0 0 1 .83 3.33c-27.4 32.79-54.69 66.01-82.99 98.37-52.56 60.12-82.83 130.7-73.63 211.93 6.46 57.01 31.07 106.43 70.17 148.25 72.55 77.61 198.25 95.25 291.6 48.92 65.74-32.62 120.56-88.17 145.91-157.53a1.14 1.13 88.8 0 1 .61-.64q2-.86 2.99.45c.87 1.14.23 3.05-.12 4.37-30.11 113.93-128.89 191.76-245.79 198.3q-18.47 1.04-42.56-1.24-57.77-5.46-108.39-33.55c-35.74-19.82-63.83-47.3-87.2-80.51-36.83-52.31-53.25-116.18-47.42-179.57 5.92-64.35 40.75-119.37 82.9-166.11Z"/><path fill="#44535d" d="M577.37 1091.37c3.01 5.89 18.87 3.84 24.7 3.93a.69.69 0 0 1 .68.69v34.24q0 .46-.46.47-19.35.15-38.52.09c-16.55-.05-28.95-5.81-28.98-24.6q-.07-52.72-.04-105.44c.01-26.4-5.85-54.11-40-51.91-30.7 1.98-51.99 29.82-57.98 57.66-1.71 7.93-2.72 16.12-2.74 24.82q-.07 49.47-.02 98.91a.52.52 0 0 1-.52.52h-40.23a.51.51 0 0 1-.51-.51q-.01-64.01 0-128.23c.01-22.68-2.32-49.38-30.73-52.84-21.85-2.66-41.55 8.79-53.74 26.62-12.13 17.76-16.49 37.26-16.51 58.62q-.04 47.37 0 95.99a.35.35 0 0 1-.35.35h-40.16a.52.51 0 0 1-.52-.51q.03-84.26-.01-168.74c-.01-7.97-4.05-9.76-11.44-9.75q-7.39.01-14.53 0a.76.76 0 0 1-.76-.76v-34.21q0-.45.45-.46 32.1-.25 41.28-.05c27.74.62 26.48 23.39 24.31 43.53a.42.42 0 0 0 .79.22c16.46-35.2 52.85-54.42 91.67-47.02 25.57 4.88 40.58 21.97 45.89 46.73a.37.37 0 0 0 .69.09c17.77-35.79 55.36-54.15 94.98-46.86 25.11 4.61 40.08 19.51 47.21 43.02q4.6 15.17 4.65 30.21.15 49.53.03 99.06-.01 3.32 1.42 6.12ZM768.21 1093.57a.3.3 0 0 0-.57-.17c-9.8 20.09-27.03 34.86-48.72 39.96-41.41 9.74-89.32-11.68-92.17-58.53-4.33-71.44 87.75-78.86 137.17-77.49q.97.02 1-.94.32-9.67-1.56-19.3c-3.6-18.42-12.03-28.23-30.35-31.65-10.8-2.01-50.72-3.3-50.3 15.44q.12 5.69.01 11.18-.01.68-.69.68h-37.77q-.51 0-.51-.5c0-8.85-.82-20.18.98-27.61 8.13-33.64 67.59-35.32 93.53-32.15 30.39 3.73 55.12 17.9 63.71 49.08 3.23 11.73 3.98 21.87 4 35.42q.05 43.63.04 87.27c0 8.23 2.95 11.06 10.88 10.98q7.59-.07 15.18.05a.7.69-89.6 0 1 .68.7v34.23q0 .44-.44.45-24.54.28-39.23.01c-24.36-.44-27.55-16.82-24.87-37.11Zm-93.98-6.5c15.89 21.6 48.7 18.67 66.88 2.51 17.24-15.33 25.4-39.06 24.05-61.76a.52.52 0 0 0-.53-.49c-25.55.39-69.43-1.68-88.45 19.32-10.04 11.09-10.31 29.05-1.95 40.42ZM998.37 1093.59a.35.35 0 0 0-.66-.22c-10.86 21.95-29.75 36.94-53.74 41.04-42.12 7.2-87.19-16.53-87.3-63.68-.17-68.06 89.6-74.89 136.95-73.37q.99.03 1.04-.96c1.16-23.44-5.21-46.72-31.57-51.11-11.78-1.95-42.19-2.69-49.09 10.3-2.18 4.11-1.22 11.74-1.26 16.67q-.01.48-.48.48l-37.59.04q-.65 0-.65-.65c-.06-9.27-1.25-21.88 1.45-30.04 10.25-31.01 67.27-32.75 92.79-29.61 31.98 3.93 57.05 19.4 64.57 52.48 2.65 11.64 3.34 21.8 3.38 35.05q.1 42.01.02 84.02c-.01 6.04 1.39 11.34 8.27 11.24q8.78-.13 17.58.03a.69.68-89.6 0 1 .67.69v34.25a.5.5 0 0 1-.5.5q-12.56.05-36.99-.03c-24.42-.09-31.17-14.73-26.89-37.12Zm-88.43-.28c20.84 17.02 52.08 9.03 67.86-10.52q19.08-23.67 17.29-54.87-.03-.45-.48-.45c-25.04-.18-71.32-1.56-89.2 20.24-10.9 13.29-9.06 34.51 4.53 45.6Z"/></svg>